<svg width="187" height="45" viewBox="0 0 187 45" fill="none" xmlns="http://www.w3.org/2000/svg">
<g clip-path="url(#clip0_2_783)">
<g style="mix-blend-mode:multiply">
<path d="M102.068 6.99651C102.068 3.08756 104.172 0.269653 108.274 0.269653C111.648 0.269653 113.523 2.20251 113.981 5.25185L111.754 5.69437C111.316 3.57077 110.212 2.41614 108.171 2.41614C105.568 2.41614 104.444 4.30831 104.444 6.99905C104.444 9.43801 105.588 11.2869 108.443 11.2869C111.089 11.2869 111.837 10.0687 111.837 8.72337V8.55551H108.151V6.43191H114.085V13.1359H111.835V10.2137H111.792C111.376 11.9787 110.083 13.3444 107.647 13.3444C104.127 13.3444 102.066 10.6969 102.066 6.99651H102.068Z" fill="#12376B"/>
<path d="M115.377 8.319C115.377 4.97719 117.335 3.0011 120.374 3.0011C123.413 3.0011 124.851 4.89327 124.851 7.60435C124.851 8.00364 124.851 8.40293 124.809 8.92938H117.625C117.834 10.5901 118.792 11.409 120.394 11.409C121.997 11.409 122.538 10.6308 122.831 9.62114L124.788 10.1883C124.29 12.0804 122.957 13.3826 120.374 13.3826C117.375 13.3826 115.377 11.5743 115.377 8.31646V8.319ZM117.648 7.2483H122.77C122.644 5.71473 121.853 4.91615 120.313 4.91615C118.774 4.91615 117.897 5.65115 117.648 7.2483Z" fill="#12376B"/>
<path d="M128.518 13.1332H126.268V3.25532H128.518V5.96641H128.538C128.976 3.8657 130.223 3.00354 131.869 3.00354C134.222 3.00354 135.117 4.56 135.117 6.70395V13.1358H132.867V7.29143C132.867 6.09357 132.345 5.04321 130.826 5.04321C129.389 5.04321 128.515 5.88503 128.515 7.29143V13.1358L128.518 13.1332Z" fill="#12376B"/>
<path d="M136.954 1.93035V0.249268H139.39V1.93035H136.954ZM137.057 13.1333V3.25537H139.304V13.1333H137.057Z" fill="#12376B"/>
<path d="M147.846 10.4222H147.826C147.388 12.5458 146.14 13.408 144.495 13.408C142.142 13.408 141.247 11.8312 141.247 9.70756V3.25537H143.497V9.09973C143.497 10.2976 144.019 11.3479 145.538 11.3479C146.974 11.3479 147.849 10.5061 147.849 9.09973V3.25537H150.096V13.1333H147.849V10.4222H147.846Z" fill="#12376B"/>
<path d="M151.366 10.0025L153.47 9.58289C153.783 10.824 154.408 11.6633 155.97 11.6633C157.157 11.6633 157.741 11.2004 157.761 10.4222C157.761 9.70751 157.262 9.32856 155.305 8.97251C152.659 8.44606 151.722 7.52287 151.722 5.94606C151.722 4.16071 153.012 3.00354 155.574 3.00354C158.137 3.00354 159.344 4.16071 159.759 6.05034L157.615 6.53355C157.323 5.23141 156.741 4.68462 155.574 4.68462C154.513 4.68462 153.949 5.12714 153.949 5.84179C153.949 6.55644 154.345 6.99896 156.323 7.33467C159.051 7.83823 159.966 8.84789 159.966 10.3611C159.966 12.2101 158.696 13.4079 155.927 13.4079C152.782 13.4079 151.722 11.9354 151.366 10.0025Z" fill="#12376B"/>
<path d="M102.068 22.3144C102.068 18.5529 104.568 15.7783 108.461 15.7783C112.354 15.7783 114.873 18.5529 114.873 22.3144C114.873 26.0758 112.48 28.9344 108.461 28.9344C104.442 28.9344 102.068 26.0962 102.068 22.3144ZM112.5 22.294C112.5 19.878 111.084 17.9426 108.461 17.9426C105.838 17.9426 104.422 19.8754 104.422 22.294C104.422 24.9415 105.818 26.7701 108.461 26.7701C111.104 26.7701 112.5 24.9415 112.5 22.294Z" fill="#12376B"/>
<path d="M118.522 28.6623H116.272V18.7844H118.522V21.4955H118.542C118.981 19.3947 120.228 18.5326 121.873 18.5326C124.227 18.5326 125.121 20.0891 125.121 22.233V28.6648H122.871V22.8205C122.871 21.6226 122.349 20.5723 120.83 20.5723C119.394 20.5723 118.519 21.4141 118.519 22.8205V28.6648L118.522 28.6623Z" fill="#12376B"/>
<path d="M129.165 28.6623H126.915V15.7783H129.165V28.6623Z" fill="#12376B"/>
<path d="M131.08 17.4593V15.7783H133.517V17.4593H131.08ZM131.183 28.6623V18.7844H133.431V28.6623H131.183Z" fill="#12376B"/>
<path d="M137.704 28.6623H135.454V18.7844H137.704V21.4955H137.725C138.163 19.3947 139.41 18.5326 141.056 18.5326C143.409 18.5326 144.304 20.0891 144.304 22.233V28.6648H142.053V22.8205C142.053 21.6226 141.532 20.5723 140.013 20.5723C138.576 20.5723 137.702 21.4141 137.702 22.8205V28.6648L137.704 28.6623Z" fill="#12376B"/>
<path d="M145.619 23.8505C145.619 20.5087 147.577 18.5326 150.615 18.5326C153.654 18.5326 155.093 20.4248 155.093 23.1358C155.093 23.5351 155.093 23.9344 155.05 24.4609H147.866C148.076 26.1216 149.033 26.9405 150.636 26.9405C152.238 26.9405 152.78 26.1623 153.072 25.1526L155.03 25.7198C154.531 27.6119 153.198 28.9141 150.615 28.9141C147.617 28.9141 145.619 27.1058 145.619 23.848V23.8505ZM147.889 22.7798H153.012C152.886 21.2462 152.095 20.4476 150.555 20.4476C149.015 20.4476 148.139 21.1826 147.889 22.7798Z" fill="#12376B"/>
<path d="M102.59 31.5819H111.565V33.853H104.963V36.6913H110.98V38.9191H104.963V41.9252H111.585V44.1964H102.59V31.5845V31.5819Z" fill="#12376B"/>
<path d="M119.998 41.3963H119.956C119.517 43.3927 118.373 44.4659 116.478 44.4659C113.939 44.4659 112.626 42.4899 112.626 39.2956C112.626 36.1012 114.022 34.0412 116.478 34.0616C118.436 34.0412 119.54 35.1119 119.978 37.1516H119.998V31.3073H122.249V44.1913H119.998V41.3963ZM119.998 39.3566V39.1887C119.998 37.2966 118.998 36.0784 117.396 36.0784C115.687 36.0784 114.856 37.2559 114.856 39.293C114.856 41.3301 115.647 42.4034 117.396 42.4034C118.998 42.4034 119.998 41.3098 119.998 39.3566Z" fill="#12376B"/>
<path d="M130.642 41.4828H130.622C130.183 43.6064 128.936 44.4685 127.291 44.4685C124.937 44.4685 124.043 42.8917 124.043 40.7681V34.3159H126.293V40.1603C126.293 41.3581 126.814 42.4085 128.334 42.4085C129.77 42.4085 130.644 41.5667 130.644 40.1603V34.3159H132.892V44.1938H130.644V41.4828H130.642Z" fill="#12376B"/>
<path d="M139.307 36.1216C137.704 36.1216 136.578 37.1313 136.578 39.2523C136.578 41.3734 137.682 42.383 139.347 42.383C141.013 42.383 141.575 41.3327 141.887 39.9237L144.031 40.3663C143.636 42.8892 142.22 44.466 139.388 44.466C136.306 44.466 134.285 42.6374 134.285 39.2752C134.285 35.9131 136.346 34.0616 139.325 34.0616C142.303 34.0616 143.616 35.5341 144.009 38.0774L141.842 38.4334C141.55 37.0448 140.821 36.1216 139.302 36.1216H139.307Z" fill="#12376B"/>
<path d="M151.575 41.7116H151.533C151.074 43.4766 149.887 44.4024 148.202 44.4024C146.39 44.4024 145.12 43.4766 145.12 41.587C145.12 39.6974 146.203 38.4766 148.66 38.4766H151.575V38.0773C151.575 36.732 151.034 35.997 149.681 35.997C148.474 35.997 147.786 36.5438 147.557 37.9731L145.412 37.678C145.705 35.4705 146.995 34.1048 149.764 34.1048C152.533 34.1048 153.803 35.5341 153.803 38.057V44.1938H151.575V41.7142V41.7116ZM151.575 40.4705V40.1552H148.993C147.909 40.1552 147.327 40.5544 147.327 41.2259C147.327 41.8973 147.766 42.5509 149.036 42.5509C150.578 42.5509 151.575 41.6684 151.575 40.4705Z" fill="#12376B"/>
<path d="M156.302 36.2259H154.969V34.3134H156.302V31.6862H158.53V34.3134H161.425V36.2259H158.53V40.8088C158.53 41.7752 158.905 42.2584 159.883 42.2584C160.382 42.2584 160.84 42.1313 161.279 42.027L161.548 44.1074C160.84 44.3388 160.319 44.466 159.361 44.466C157.217 44.466 156.3 43.0367 156.3 41.1877V36.2284L156.302 36.2259Z" fill="#12376B"/>
<path d="M162.841 32.9909V31.3098H165.278V32.9909H162.841ZM162.944 44.1938V34.3159H165.192V44.1938H162.944Z" fill="#12376B"/>
<path d="M166.737 39.232C166.737 35.9741 168.735 34.0616 171.756 34.0616C174.777 34.0616 176.752 35.9741 176.752 39.232C176.752 42.4899 174.858 44.466 171.756 44.466C168.654 44.466 166.737 42.4695 166.737 39.232ZM168.984 39.2116C168.984 41.1241 169.962 42.3856 171.733 42.3856C173.504 42.3856 174.522 41.1241 174.522 39.2116C174.522 37.2991 173.482 36.1216 171.753 36.1216C170.025 36.1216 168.984 37.3195 168.984 39.2116Z" fill="#12376B"/>
<path d="M180.401 44.1939H178.151V34.3159H180.401V37.027H180.421C180.859 34.9263 182.107 34.0641 183.752 34.0641C186.106 34.0641 187 35.6206 187 37.7646V44.1964H184.75V38.352C184.75 37.1542 184.228 36.1038 182.709 36.1038C181.273 36.1038 180.398 36.9456 180.398 38.352V44.1964L180.401 44.1939Z" fill="#12376B"/>
</g>
<path d="M33.4441 41.9863C30.1659 43.9039 26.3586 45 22.2944 45C9.98308 45 0 34.9237 0 22.4975C0 10.0712 9.98308 0 22.2944 0V22.4975C22.2944 30.8265 26.7794 38.1002 33.4441 41.9863Z" fill="#F04B25"/>
<path d="M44.5887 22.4974C44.5887 30.8214 40.1087 38.0951 33.4441 41.9862C26.7794 38.1002 22.2944 30.8265 22.2944 22.4974H44.5887Z" fill="#D12215"/>
<path d="M48.5774 44.6414C47.2823 44.8754 45.9519 45 44.5887 45C40.5295 45 36.7222 43.9064 33.4441 41.9863C40.1087 38.0951 44.5887 30.8215 44.5887 22.4975H22.2944C22.2944 10.0712 32.2774 0 44.5887 0C44.6467 0 44.7097 0 44.7651 0.00508647V44.6439H48.5774V44.6414Z" fill="#F4A905"/>
<path d="M66.878 22.4975C66.878 33.5504 58.9863 42.7442 48.5774 44.6414H44.7651V0.00512695C56.9983 0.0992266 66.878 10.1297 66.878 22.4975Z" fill="#12376B"/>
<path d="M88.996 0L66.8554 22.5L88.996 44.6414H48.5774C58.9863 42.7416 66.878 33.5504 66.878 22.4975C66.878 10.1297 56.9983 0.0991862 44.7651 0.00508647V0H88.9935H88.996Z" fill="#286CD5"/>
</g>
<defs>
<clipPath id="clip0_2_783">
<rect width="187" height="45" fill="white"/>
</clipPath>
</defs>
</svg>
