<svg width="172" height="51" viewBox="0 0 172 51" fill="none" xmlns="http://www.w3.org/2000/svg">
<path d="M70.7602 47.9454L65.2676 47.9227C57.5046 46.5212 51.1826 41.4958 47.9016 34.7741V47.9454L42.409 47.9227C34.8544 46.5575 28.6684 41.7634 25.3149 35.3139V47.9454L19.8223 47.9227C8.33406 45.8454 0 35.8491 0 24.1519C0 10.9398 10.7405 0.108854 23.9372 0.00907133L25.3058 0V13.0488C29.3074 5.3701 37.3197 0.0816403 46.5239 0.00907133L47.8925 0V13.5885C51.799 5.61956 59.9654 0.0816404 69.3825 0.013607L70.7511 0.00453566V47.9499L70.7602 47.9454ZM65.6302 45.2241H68.0411V2.78483C56.9653 3.57856 48.169 12.8901 48.169 24.1564C48.169 34.4975 55.506 43.3373 65.6302 45.2241ZM42.7715 45.2241H45.1825V2.78483C34.1067 3.57856 25.3149 12.8901 25.3149 24.1564C25.3149 34.4975 32.6519 43.3373 42.7761 45.2241H42.7715ZM20.1848 45.2241H22.5958V2.78483C11.5199 3.57856 2.72364 12.8901 2.72364 24.1564C2.72364 34.4975 10.0607 43.3373 20.1848 45.2241Z" fill="#F04A26"/>
<path d="M84.886 17.7068C84.886 12.6406 87.6368 8.98947 92.998 8.98947C97.4074 8.98947 99.8592 11.4976 100.457 15.4481L97.5434 16.0196C96.9724 13.2665 95.5267 11.7698 92.862 11.7698C89.4586 11.7698 87.9903 14.2235 87.9903 17.7114C87.9903 20.8726 89.4858 23.2719 93.2155 23.2719C96.6733 23.2719 97.6522 21.6936 97.6522 19.9474V19.7297H92.8348V16.9766H100.593V25.6667H97.6522V21.8795H97.5978C97.054 24.17 95.3636 25.9389 92.1777 25.9389C87.5779 25.9389 84.8814 22.5054 84.8814 17.7114" fill="#F04A26"/>
<path d="M102.905 25.6622V12.8583H105.846V17.0537H105.9C106.471 13.7291 107.613 12.8583 109.548 12.8583H110.282V16.1557H109.032C106.743 16.1557 105.846 16.9448 105.846 19.1809V25.6667H102.905V25.6622Z" fill="#F04A26"/>
<path d="M119.704 20.8409V20.4327H116.328C114.914 20.4327 114.148 20.9498 114.148 21.8206C114.148 22.6914 114.719 23.5396 116.382 23.5396C118.399 23.5396 119.704 22.3966 119.704 20.8409ZM119.704 22.4465H119.65C119.052 24.7369 117.497 25.9343 115.295 25.9343C112.924 25.9343 111.266 24.7369 111.266 22.2832C111.266 19.8295 112.68 18.2511 115.893 18.2511H119.704V17.734C119.704 15.9924 118.997 15.0354 117.225 15.0354C115.648 15.0354 114.746 15.7429 114.447 17.598L111.642 17.217C112.023 14.355 113.713 12.5862 117.329 12.5862C120.946 12.5862 122.614 14.4412 122.614 17.7068V25.6622H119.7V22.4465H119.704Z" fill="#F04A26"/>
<path d="M134.677 19.2035C134.677 16.641 133.644 15.1714 131.383 15.1714C129.257 15.1714 127.952 16.5865 127.952 19.1219V19.3396C127.952 21.7934 129.257 23.3717 131.383 23.3717C133.508 23.3717 134.677 21.8206 134.677 19.2035ZM132.552 26.016C129.991 26.016 128.577 24.6281 128.006 22.0111H127.952V29.395H125.011V12.8583H127.952V16.4822H128.006C128.605 13.8924 130.077 12.5317 132.579 12.5317C135.874 12.5317 137.587 15.0671 137.587 19.2081C137.587 23.349 135.788 26.0205 132.552 26.0205" fill="#F04A26"/>
<path d="M142.354 25.6622H139.413V8.96228H142.354V16.3734H142.381C142.952 13.6475 144.588 12.5318 146.737 12.5318C149.814 12.5318 150.983 14.5501 150.983 17.3259V25.6622H148.042V18.0878C148.042 16.5321 147.362 15.1715 145.372 15.1715C143.492 15.1715 142.35 16.26 142.35 18.0878V25.6622H142.354Z" fill="#F04A26"/>
<path d="M153.516 12.8583H156.457V25.6622H153.516V12.8583ZM153.38 8.96228H156.566V11.1439H153.38V8.96228Z" fill="#F04A26"/>
<path d="M165.032 15.1987C162.938 15.1987 161.465 16.5049 161.465 19.258C161.465 22.0111 162.906 23.3173 165.086 23.3173C167.266 23.3173 168 21.9567 168.408 20.1288L171.213 20.7003C170.696 23.9705 168.843 26.0115 165.14 26.0115C161.112 26.0115 158.469 23.6394 158.469 19.2807C158.469 14.922 161.166 12.5227 165.059 12.5227C168.952 12.5227 170.669 14.4322 171.186 17.725L168.353 18.1876C167.973 16.3915 167.021 15.1896 165.032 15.1896" fill="#F04A26"/>
<path d="M88.6701 32.9644V44.0811H91.9647C95.8032 44.0811 97.4392 41.9267 97.4392 38.389C97.4392 34.8512 95.6989 32.969 91.8061 32.969H88.6746L88.6701 32.9644ZM85.5657 30.3474H92.2094C97.8198 30.3474 100.512 33.4815 100.512 38.3844C100.512 43.2874 97.489 46.6936 92.2638 46.6936H85.5657V30.3474Z" fill="#F04A26"/>
<path d="M104.677 39.0693H111.375C111.211 37.0782 110.178 36.0441 108.161 36.0441C106.145 36.0441 105.003 36.9966 104.677 39.0693ZM101.708 40.4572C101.708 36.1257 104.269 33.5631 108.243 33.5631C112.218 33.5631 114.098 36.0169 114.098 39.5319C114.098 40.049 114.098 40.566 114.044 41.2509H104.649C104.921 43.4053 106.172 44.4666 108.27 44.4666C110.369 44.4666 111.075 43.4597 111.456 42.149L114.017 42.8837C113.364 45.3375 111.619 47.0247 108.248 47.0247C104.328 47.0247 101.713 44.6798 101.713 40.4572" fill="#F04A26"/>
<path d="M115.159 42.6388L117.909 42.0945C118.317 43.7001 119.133 44.7932 121.177 44.7932C122.727 44.7932 123.493 44.1945 123.52 43.1876C123.52 42.2623 122.867 41.7725 120.307 41.3099C116.849 40.6295 115.625 39.4276 115.625 37.3866C115.625 35.0689 117.311 33.5722 120.66 33.5722C124.009 33.5722 125.586 35.0689 126.135 37.5227L123.33 38.1486C122.949 36.4568 122.188 35.7493 120.66 35.7493C119.274 35.7493 118.535 36.3208 118.535 37.246C118.535 38.1713 119.052 38.7427 121.639 39.1827C125.206 39.8358 126.402 41.1466 126.402 43.106C126.402 45.5053 124.744 47.0564 121.118 47.0564C117.008 47.0564 115.621 45.147 115.154 42.6433" fill="#F04A26"/>
<path d="M128.36 33.8897H131.301V46.6936H128.36V33.8897ZM128.224 29.9937H131.41V32.1753H128.224V29.9937Z" fill="#F04A26"/>
<path d="M136.282 38.4434C136.282 39.7224 137.016 40.5388 139.032 40.5388C141.049 40.5388 141.838 39.7496 141.838 38.4434C141.838 37.1372 140.913 36.3162 139.005 36.3162C137.097 36.3162 136.282 37.1598 136.282 38.4434ZM143.442 47.0791C143.442 46.5076 143.088 46.0178 142.028 46.0178H137.129C135.797 46.0178 135.198 46.6437 135.198 47.2696C135.198 48.2493 135.96 48.603 139.227 48.603C142.712 48.603 143.446 48.1132 143.446 47.0791M132.91 48.1676C132.91 47.0791 133.97 46.2309 135.96 45.986C134.709 45.8227 133.998 45.2241 133.998 44.2716C133.998 43.6185 134.569 42.9381 135.606 42.5844L136.585 42.1489C134.677 41.5503 133.644 40.185 133.644 38.2801C133.644 35.4726 135.688 33.8942 139.146 33.8942H145.409V36.3752H143.75C143.125 36.3752 142.499 36.3752 141.597 36.3207V36.348C143.175 36.6473 144.375 37.3276 144.375 39.0466C144.375 41.3099 142.495 42.48 139.01 42.48C138.194 42.48 137.46 42.3984 136.803 42.2079L136.531 42.6433C136.368 42.9155 136.232 43.0787 136.232 43.2964C136.232 43.7863 136.585 43.9768 137.347 43.9768C138.869 43.9768 140.505 43.8951 141.919 43.8951C144.643 43.8951 145.785 45.0925 145.785 47.0836C145.785 49.4829 144.126 50.8164 139.277 50.7892C134.297 50.8164 132.905 49.7823 132.905 48.1722" fill="#F04A26"/>
<path d="M150.167 46.6981H147.226V33.8942H150.167V37.4093H150.194C150.765 34.6834 152.401 33.5677 154.549 33.5677C157.627 33.5677 158.796 35.586 158.796 38.3618V46.6981H155.855V39.1237C155.855 37.5681 155.175 36.2074 153.185 36.2074C151.305 36.2074 150.163 37.2959 150.163 39.1237V46.6981H150.167Z" fill="#F04A26"/>
</svg>
