<svg width="137" height="63" viewBox="0 0 137 63" fill="none" xmlns="http://www.w3.org/2000/svg">
<path d="M73.8757 28.7511C73.8757 25.5636 75.3884 24.0329 78.5776 24.0329H83.5525C83.4852 22.2372 82.3591 21.1313 80.8003 21.1313C79.4011 21.1313 78.6196 21.8041 78.2078 22.826L76.0523 22.0101C76.6952 19.4155 78.8506 18.4567 80.754 18.4567C83.7583 18.4567 85.6365 20.6014 85.6365 24.3609V26.7074H78.5776C76.8128 26.7074 76.2833 27.1784 76.2833 28.7511V33.7343H73.8757V28.7511Z" fill="#12386B"/>
<path d="M91.5316 24.8529H94.3762V24.6258C94.3762 22.9311 93.3006 21.8293 91.7417 21.8293C90.456 21.8293 89.54 22.5863 89.54 23.6249C89.54 24.4828 90.2753 24.8529 91.5358 24.8529M87.2248 29.7562H88.624C91.6955 29.7562 93.4602 28.8983 94.1031 27.5316H91.3762C88.9223 27.5316 87.4559 26.2028 87.4559 23.9782C87.4559 21.2616 89.4055 19.159 91.9938 19.159C94.5821 19.159 96.3973 21.2826 96.4855 24.8571H97.6074V26.9807L96.9897 27.5316H96.2124C95.4099 30.6351 92.9098 32.4349 88.7836 32.4349H87.2248V29.7604V29.7562Z" fill="#12386B"/>
<path d="M96.9855 25.4038L97.6074 24.8529H100.057V26.9765L99.4394 27.5274H96.9855V25.4038Z" fill="#12386B"/>
<path d="M99.4394 25.4038L100.061 24.8529H102.511V26.9765L101.893 27.5274H99.4394V25.4038Z" fill="#12386B"/>
<path d="M101.893 25.4038L102.515 24.8529H104.965V26.9765L104.347 27.5274H101.893V25.4038Z" fill="#12386B"/>
<path d="M104.347 25.4038L104.965 24.8529H107.419V26.9765L106.801 27.5274H104.347V25.4038Z" fill="#12386B"/>
<path d="M106.801 25.4038L107.419 24.8529H109.872V26.9765L109.255 27.5274H106.801V25.4038Z" fill="#12386B"/>
<path d="M109.255 25.4038L109.872 24.8529H112.326V26.9765L111.709 27.5274H109.255V25.4038Z" fill="#12386B"/>
<path d="M111.704 25.4038L112.326 24.8529H114.78V26.9765L114.158 27.5274H111.704V25.4038Z" fill="#12386B"/>
<path d="M114.158 25.4038L114.78 24.8529H117.234V26.9765L116.612 27.5274H114.158V25.4038Z" fill="#12386B"/>
<path d="M116.612 25.4038L117.23 24.8529H117.873C119.154 24.8529 119.73 24.3609 119.73 23.3222V12.4138H122.184V23.3222C122.184 24.3651 122.709 24.8529 123.881 24.8529H124.684V26.9766L124.066 27.5274C121.684 27.5274 120.423 26.7327 120.007 24.9959H119.869C119.503 26.7705 118.562 27.5274 116.612 27.5274V25.4038Z" fill="#12386B"/>
<path d="M124.066 25.4038L124.684 24.8529H126.839V24.752C126.083 24.016 125.579 22.9731 125.579 21.8293C125.579 19.2137 127.734 17.1952 130.554 17.1952C132.802 17.1952 134.222 18.0741 135.209 19.5249L133.146 21.2406C132.436 20.3028 131.566 19.8907 130.373 19.8907C128.675 19.8907 127.667 20.6266 127.667 21.8293C127.667 23.2381 129.133 24.138 131.407 24.138C132.163 24.138 133.037 24.0371 133.768 23.852L135.877 23.3432L136.634 25.7528L133.377 26.6317C130.65 27.3466 128.722 27.5316 124.07 27.5316V25.408L124.066 25.4038Z" fill="#12386B"/>
<path d="M79.6994 38.1204C79.6994 37.2205 80.2247 36.8546 80.96 36.8546H81.3508C82.0861 36.8546 82.6113 37.2205 82.6113 38.1204C82.6113 39.0203 82.0819 39.3652 81.3508 39.3652H80.96C80.2247 39.3652 79.6994 38.9993 79.6994 38.1204ZM76.2834 38.1204C76.2834 37.2205 76.8086 36.8546 77.5439 36.8546H77.9347C78.67 36.8546 79.1952 37.2205 79.1952 38.1204C79.1952 39.0203 78.6658 39.3652 77.9347 39.3652H77.5439C76.8086 39.3652 76.2834 38.9993 76.2834 38.1204ZM79.9306 46.7201V44.1045L78.0524 44.9413C76.4221 45.6562 75.6699 46.0851 75.6699 46.9009C75.6699 47.6369 76.1279 47.9228 77.5061 47.9228C79.2961 47.9228 79.9348 47.6158 79.9348 46.7159M80.0482 48.4316V48.2676H79.9095C79.4515 49.9623 78.5818 50.5973 76.8591 50.5973C74.7288 50.5973 73.5817 49.5166 73.5817 47.6579C73.5817 45.6141 74.9557 44.4114 77.4347 43.2676L79.9348 42.1238V41.022H82.3424V47.8009C82.3424 48.7008 82.7793 49.0036 83.9012 49.0036H84.6113V51.1272L83.9937 51.6781C81.2205 51.6571 80.0524 50.5343 80.0524 48.4316" fill="#12386B"/>
<path d="M83.9894 49.5544L84.6071 49.0035H87.0609V51.1272L86.4391 51.6823H83.9894V49.5544Z" fill="#12386B"/>
<path d="M86.4391 49.5544L87.0609 49.0035H89.5148V51.1272L88.8929 51.6823H86.4391V49.5544Z" fill="#12386B"/>
<path d="M88.8929 49.5544L89.5148 49.0035H91.9644V51.1272L91.3468 51.6823H88.8929V49.5544Z" fill="#12386B"/>
<path d="M91.3467 49.5544L91.9644 49.0035H94.4182V51.1272L93.8006 51.6823H91.3467V49.5544Z" fill="#12386B"/>
<path d="M98.3848 54.7436C98.3848 53.8437 98.9142 53.4779 99.6453 53.4779H100.036C100.771 53.4779 101.297 53.8479 101.297 54.7436C101.297 55.6394 100.767 55.9884 100.036 55.9884H99.6453C98.91 55.9884 98.3848 55.6225 98.3848 54.7436ZM94.9687 54.7436C94.9687 53.8437 95.4981 53.4779 96.2292 53.4779H96.62C97.3553 53.4779 97.8805 53.8479 97.8805 54.7436C97.8805 55.6394 97.3553 55.9884 96.62 55.9884H96.2292C95.4939 55.9884 94.9687 55.6225 94.9687 54.7436ZM93.8006 49.5544L94.4182 49.0035H95.1284C96.4141 49.0035 97.0108 48.5115 97.0108 47.4728V44.4703H99.2587V47.4728C99.2587 48.5157 99.8091 49.0035 100.977 49.0035H101.847V51.1272L101.229 51.678C98.8932 51.678 97.6746 50.8833 97.2629 49.1465H97.1494C96.7586 50.9211 95.7964 51.678 93.8006 51.678V49.5544Z" fill="#12386B"/>
<path d="M101.229 49.5544L101.847 49.0035H104.003V48.9026C103.246 48.1667 102.742 47.1238 102.742 45.98C102.742 43.3643 104.898 41.3458 107.717 41.3458C109.965 41.3458 111.385 42.2247 112.372 43.6755L110.309 45.3913C109.599 44.4535 108.73 44.0414 107.536 44.0414C105.839 44.0414 104.83 44.7773 104.83 45.98C104.83 47.3887 106.297 48.2887 108.57 48.2887C109.326 48.2887 110.2 48.1877 110.931 48.0027L113.041 47.4939L113.797 49.9035L110.54 50.7824C107.814 51.4972 105.885 51.6823 101.234 51.6823V49.5586L101.229 49.5544Z" fill="#12386B"/>
<path d="M130.554 42.9817C130.554 42.0817 131.083 41.7159 131.793 41.7159H132.205C132.915 41.7159 133.444 42.0859 133.444 42.9817C133.444 43.8774 132.919 44.2264 132.205 44.2264H131.793C131.083 44.2264 130.554 43.8563 130.554 42.9817ZM128.856 40.1642C128.856 39.2853 129.36 38.8984 130.091 38.8984H130.482C131.218 38.8984 131.722 39.2853 131.722 40.1642C131.722 41.043 131.218 41.4089 130.482 41.4089H130.091C129.356 41.4089 128.856 41.022 128.856 40.1642ZM127.112 42.9817C127.112 42.0817 127.642 41.7159 128.373 41.7159H128.764C129.499 41.7159 130.024 42.0859 130.024 42.9817C130.024 43.8774 129.499 44.2264 128.764 44.2264H128.373C127.638 44.2264 127.112 43.8563 127.112 42.9817ZM112.923 53.9068H113.978C116.751 53.9068 117.898 52.6999 117.898 50.4333C117.898 49.7605 117.784 49.0035 117.646 48.2088L117.255 46.1061L125.255 45.2903V47.477C125.255 48.7218 125.873 49.2727 127.205 49.2727C128.537 49.2727 129.129 48.8017 129.129 47.477V46.1103H131.398V47.477C131.398 48.7008 131.856 49.2138 132.705 49.2138H133.003C133.76 49.2138 134.197 48.8059 134.197 47.906C134.197 47.4981 134.129 46.8841 133.965 46.0473L133.781 44.9833L136.003 44.6764L136.188 45.7193C136.302 46.5351 136.373 47.25 136.373 47.906C136.373 50.6015 135.226 51.9304 132.865 51.9304C130.802 51.9304 129.768 51.0725 129.402 49.3358H129.289C129.016 51.0725 128.096 51.9304 126.423 51.9304C124.175 51.9094 123.007 50.7067 122.986 48.1541L119.915 48.44C120.028 49.197 120.074 49.8698 120.074 50.3787C120.074 54.0162 118.125 56.5898 113.999 56.5898H112.923V53.9152V53.9068Z" fill="#12386B"/>
<path d="M31.4041 62.8598L22.2064 53.6545H9.19771V40.6351L0 31.4299L9.19771 22.2246V9.20525H22.2064L31.4041 0L40.6018 9.20525H53.6105V22.2246L62.8082 31.4299L53.6105 40.6351V53.6545H40.6018L31.4041 62.8598ZM25.7737 53.6545L31.4041 59.2895L37.0345 53.6545H25.7695H25.7737ZM43.1229 51.1314H51.0895V43.1583L43.1229 51.1314ZM23.2526 51.1314H39.5598L51.0895 39.5922V23.2717L39.5598 11.7326H23.2526L11.723 23.2717V39.5922L23.2526 51.1314ZM11.723 51.1314H19.6895L11.723 43.1583V51.1314ZM53.6105 25.7949V37.0691L59.2451 31.4341L53.6105 25.7991V25.7949ZM3.57152 31.4299L9.20191 37.0649V25.7907L3.57152 31.4257V31.4299ZM11.723 11.7326V19.7057L19.6895 11.7326H11.723ZM43.1229 11.7326L51.0895 19.7057V11.7326H43.1229ZM25.7737 9.20945H37.0387L31.4083 3.57444L25.7779 9.20945H25.7737Z" fill="#12386B"/>
</svg>
