<svg width="193" height="51" viewBox="0 0 193 51" fill="none" xmlns="http://www.w3.org/2000/svg">
<path d="M91.081 26.3924H98.4588V29.336H87.9767V12.9898H91.081V26.3924Z" fill="#296BD6"/>
<path d="M108.202 24.5147V24.1065H104.826C103.412 24.1065 102.646 24.6235 102.646 25.4944C102.646 26.3652 103.217 27.2088 104.88 27.2088C106.897 27.2088 108.202 26.0659 108.202 24.5102M108.202 26.1157H108.148C107.55 28.4062 105.995 29.6036 103.793 29.6036C101.423 29.6036 99.764 28.4062 99.764 25.9525C99.764 23.4987 101.178 21.9203 104.391 21.9203H108.202V21.4033C108.202 19.6616 107.495 18.7046 105.723 18.7046C104.146 18.7046 103.244 19.4122 102.945 21.2672L100.14 20.8862C100.521 18.0243 102.211 16.2554 105.828 16.2554C109.444 16.2554 111.112 18.1059 111.112 21.3761V29.3315H108.198V26.1157H108.202Z" fill="#296BD6"/>
<path d="M116.45 29.336H113.509V16.5321H116.45V20.0472H116.477C117.048 17.3213 118.684 16.2056 120.833 16.2056C123.91 16.2056 125.079 18.2239 125.079 20.9997V29.336H122.138V21.7616C122.138 20.2105 121.458 18.8453 119.468 18.8453C117.588 18.8453 116.446 19.9338 116.446 21.7616V29.336H116.45Z" fill="#296BD6"/>
<path d="M129.765 21.0813C129.765 22.3603 130.499 23.1767 132.516 23.1767C134.532 23.1767 135.321 22.3875 135.321 21.0813C135.321 19.7751 134.396 18.9541 132.488 18.9541C130.581 18.9541 129.765 19.7977 129.765 21.0813ZM136.925 29.717C136.925 29.1455 136.572 28.6557 135.511 28.6557H130.612C129.275 28.6557 128.677 29.2816 128.677 29.9075C128.677 30.8872 129.438 31.241 132.706 31.241C136.191 31.241 136.925 30.7511 136.925 29.717ZM126.389 30.8055C126.389 29.717 127.449 28.8689 129.438 28.6239C128.188 28.4607 127.476 27.862 127.476 26.9095C127.476 26.2564 128.047 25.576 129.08 25.2223L130.059 24.7869C128.156 24.1882 127.118 22.823 127.118 20.918C127.118 18.1105 129.162 16.5321 132.62 16.5321H138.883V19.0131H137.224C136.599 19.0131 135.973 19.0131 135.072 18.9587V18.9859C136.649 19.2852 137.85 19.9656 137.85 21.6845C137.85 23.9478 135.973 25.118 132.488 25.118C131.673 25.118 130.939 25.0363 130.281 24.8458L130.01 25.2812C129.846 25.5534 129.71 25.7166 129.71 25.9344C129.71 26.4242 130.064 26.6147 130.825 26.6147C132.348 26.6147 133.984 26.533 135.398 26.533C138.122 26.533 139.264 27.7304 139.264 29.7215C139.264 32.1209 137.605 33.4543 132.756 33.4271C127.775 33.4543 126.384 32.4202 126.384 30.8101" fill="#296BD6"/>
<path d="M149.229 25.821H149.202C148.631 28.574 146.995 29.6898 144.847 29.6898C141.77 29.6898 140.6 27.6443 140.6 24.8957V16.5321H143.542V24.1065C143.542 25.6577 144.221 27.0229 146.211 27.0229C148.092 27.0229 149.234 25.9343 149.234 24.1065V16.5321H152.175V29.336H149.234V25.821H149.229Z" fill="#296BD6"/>
<path d="M162.625 24.5147V24.1065H159.249C157.835 24.1065 157.069 24.6235 157.069 25.4944C157.069 26.3652 157.64 27.2088 159.303 27.2088C161.32 27.2088 162.625 26.0659 162.625 24.5102M162.625 26.1157H162.571C161.973 28.4062 160.418 29.6036 158.216 29.6036C155.845 29.6036 154.187 28.4062 154.187 25.9525C154.187 23.4987 155.601 21.9203 158.814 21.9203H162.625V21.4033C162.625 19.6616 161.918 18.7046 160.146 18.7046C158.569 18.7046 157.667 19.4122 157.368 21.2672L154.563 20.8862C154.944 18.0243 156.634 16.2554 160.25 16.2554C163.867 16.2554 165.535 18.1059 165.535 21.3761V29.3315H162.621V26.1157H162.625Z" fill="#296BD6"/>
<path d="M170.275 21.0813C170.275 22.3603 171.009 23.1767 173.026 23.1767C175.042 23.1767 175.831 22.3875 175.831 21.0813C175.831 19.7751 174.907 18.9541 172.999 18.9541C171.091 18.9541 170.275 19.7977 170.275 21.0813ZM177.435 29.717C177.435 29.1455 177.082 28.6557 176.021 28.6557H171.122C169.786 28.6557 169.187 29.2816 169.187 29.9075C169.187 30.8872 169.949 31.241 173.216 31.241C176.701 31.241 177.435 30.7511 177.435 29.717ZM166.899 30.8055C166.899 29.717 167.959 28.8689 169.949 28.6239C168.698 28.4607 167.986 27.862 167.986 26.9095C167.986 26.2564 168.557 25.576 169.591 25.2223L170.57 24.7869C168.666 24.1882 167.628 22.823 167.628 20.918C167.628 18.1105 169.672 16.5321 173.13 16.5321H179.393V19.0131H177.734C177.109 19.0131 176.484 19.0131 175.582 18.9587V18.9859C177.159 19.2852 178.36 19.9656 178.36 21.6845C178.36 23.9478 176.484 25.118 172.999 25.118C172.183 25.118 171.449 25.0363 170.792 24.8458L170.52 25.2812C170.357 25.5534 170.221 25.7166 170.221 25.9344C170.221 26.4242 170.574 26.6147 171.335 26.6147C172.858 26.6147 174.494 26.533 175.908 26.533C178.632 26.533 179.774 27.7304 179.774 29.7215C179.774 32.1209 178.115 33.4543 173.266 33.4271C168.285 33.4543 166.894 32.4202 166.894 30.8101" fill="#296BD6"/>
<path d="M183.558 21.7072H190.256C190.093 19.7161 189.059 18.682 187.043 18.682C185.026 18.682 183.884 19.6344 183.558 21.7072ZM180.589 23.0951C180.589 18.7636 183.15 16.201 187.124 16.201C191.099 16.201 192.979 18.6548 192.979 22.1698C192.979 22.6869 192.979 23.2039 192.925 23.8843H183.531C183.802 26.0386 185.053 27.1 187.152 27.1C189.25 27.1 189.957 26.0931 190.337 24.7823L192.898 25.5171C192.245 27.9708 190.501 29.658 187.129 29.658C183.209 29.658 180.594 27.3131 180.594 23.0905" fill="#296BD6"/>
<path d="M87.1881 44.9474L90.1837 44.3487C90.6187 46.6664 92.2003 48.027 94.7019 48.027C96.8001 48.027 97.8878 47.2106 97.8878 45.9044C97.8878 44.5982 96.9361 43.8861 93.859 43.4235C89.3407 42.7159 87.8951 40.8881 87.8951 38.4117C87.8951 35.5225 90.016 33.672 93.995 33.672C98.2957 33.672 100.036 35.9897 100.666 38.9877L97.6159 39.6136C97.0993 37.4592 96.1748 36.3162 93.859 36.3162C92.0372 36.3162 91.0266 37.1326 91.0266 38.3618C91.0266 39.4503 91.6248 40.244 95.2185 40.8427C99.8184 41.5775 101.042 43.4869 101.042 45.8001C101.042 48.7437 98.9981 50.7302 94.5071 50.7302C89.5538 50.703 87.5643 48.1132 87.1836 44.9519" fill="#296BD6"/>
<path d="M103.82 40.0444H102.075V37.5635H103.82V34.1573H106.734V37.5635H110.518V40.0444H106.734V45.986C106.734 47.2378 107.223 47.8683 108.501 47.8683C109.154 47.8683 109.752 47.705 110.328 47.5689L110.681 50.2676C109.757 50.5669 109.077 50.7302 107.822 50.7302C105.016 50.7302 103.82 48.8797 103.82 46.4804V40.049V40.0444Z" fill="#296BD6"/>
<path d="M120.837 46.8569H120.81C120.239 49.61 118.603 50.7257 116.455 50.7257C113.378 50.7257 112.208 48.6802 112.208 45.9316V37.5681H115.15V45.1424C115.15 46.6936 115.829 48.0588 117.819 48.0588C119.7 48.0588 120.842 46.9703 120.842 45.1424V37.5681H123.783V50.3719H120.842V46.8569H120.837Z" fill="#296BD6"/>
<path d="M135.235 44.1038V43.8861C135.235 41.4323 133.93 39.854 131.831 39.854C129.597 39.854 128.509 41.3779 128.509 44.0221C128.509 46.6664 129.543 48.0542 131.831 48.0542C133.93 48.0542 135.235 46.6392 135.235 44.1038ZM135.235 46.748H135.18C134.609 49.3378 133.109 50.7257 130.635 50.7257C127.313 50.7257 125.6 48.1631 125.6 44.0221C125.6 39.8812 127.426 37.2097 130.635 37.2369C133.195 37.2097 134.636 38.5976 135.207 41.2418H135.235V33.6674H138.176V50.3719H135.235V46.748Z" fill="#296BD6"/>
<path d="M140.818 37.5635H143.759V50.3674H140.818V37.5635ZM140.682 33.6674H143.868V35.8491H140.682V33.6674Z" fill="#296BD6"/>
<path d="M148.74 42.7431H155.438C155.275 40.752 154.241 39.7179 152.225 39.7179C150.208 39.7179 149.066 40.6704 148.74 42.7431ZM145.771 44.131C145.771 39.7995 148.332 37.2369 152.306 37.2369C156.281 37.2369 158.161 39.6907 158.161 43.2057C158.161 43.7228 158.161 44.2398 158.107 44.9202H148.712C148.984 47.0746 150.235 48.1359 152.333 48.1359C154.432 48.1359 155.139 47.129 155.519 45.8182L158.08 46.553C157.427 49.0067 155.682 50.6939 152.311 50.6939C148.391 50.6939 145.776 48.3491 145.776 44.1265" fill="#296BD6"/>
<path d="M159.222 46.3126L161.973 45.7683C162.38 47.3739 163.196 48.467 165.24 48.467C166.79 48.467 167.556 47.8683 167.583 46.8614C167.583 45.9361 166.93 45.4463 164.37 44.9791C160.912 44.2988 159.689 43.1014 159.689 41.0559C159.689 38.7382 161.374 37.2415 164.723 37.2415C168.072 37.2415 169.65 38.7382 170.198 41.1919L167.393 41.8178C167.012 40.1306 166.251 39.4185 164.723 39.4185C163.337 39.4185 162.598 39.99 162.598 40.9153C162.598 41.8405 163.115 42.412 165.702 42.8519C169.269 43.5051 170.465 44.8158 170.465 46.7752C170.465 49.1745 168.807 50.7257 165.181 50.7257C161.071 50.7257 159.684 48.8162 159.217 46.3126" fill="#296BD6"/>
<path d="M72.4189 49.8639H0V0L22.6003 22.6188V0L72.4189 49.8594V49.8639ZM47.0995 47.1426H65.8522L25.3149 6.57203V25.3402L47.0949 47.1381L47.0995 47.1426ZM25.3194 47.1426H43.2564L25.3194 29.1909V47.1426ZM2.71911 47.1426H22.6003V26.4695L2.71911 6.57203V47.1426Z" fill="#296BD6"/>
</svg>
