<svg width="251" height="51" viewBox="0 0 251 51" fill="none" xmlns="http://www.w3.org/2000/svg">
<path d="M71.6122 47.9363H37.569L61.5651 24.1428L37.6098 0H71.6122V47.9363ZM44.1764 45.215H68.8931V2.72134H44.1401L64.8235 23.5668V24.7415L44.1764 45.215ZM34.0024 47.9363H0V0H34.0432L10.0471 23.7935L34.0024 47.9363ZM2.71911 45.215H27.472L6.78869 24.3696V23.1949L27.4358 2.72134H2.71911V45.215Z" fill="#F5A805"/>
<path d="M96.5509 25.6531H92.4134L88.167 9.30698H91.5161L93.2563 16.7453C93.7185 18.8725 94.0992 20.8046 94.4527 22.8774H94.6974C95.1053 20.7547 95.5403 18.818 96.0569 16.7725L97.9649 9.30698H101.776L103.625 16.7725C104.115 18.818 104.495 20.7502 104.903 22.8774H105.148C105.529 20.8046 105.964 18.8725 106.399 16.7453L108.062 9.30698H111.275L107.001 25.6531H102.837L101.042 18.106C100.607 16.1738 100.145 13.9922 99.764 12.0283H99.6009C99.2202 13.965 98.7307 16.1693 98.2957 18.106L96.5509 25.6531Z" fill="#F5A805"/>
<path d="M114.053 18.0243H120.751C120.588 16.0377 119.555 14.9991 117.538 14.9991C115.521 14.9991 114.379 15.9515 114.053 18.0243ZM111.085 19.4122C111.085 15.0807 113.645 12.5181 117.619 12.5181C121.594 12.5181 123.475 14.9719 123.475 18.4869C123.475 19.004 123.475 19.521 123.42 20.2059H114.03C114.302 22.3603 115.553 23.4216 117.651 23.4216C119.749 23.4216 120.456 22.4147 120.837 21.1039L123.398 21.8387C122.745 24.2924 121 25.9797 117.629 25.9797C113.708 25.9797 111.094 23.6348 111.094 19.4122" fill="#F5A805"/>
<path d="M134.99 19.199C134.99 16.6364 133.957 15.1669 131.695 15.1669C129.57 15.1669 128.265 16.582 128.265 19.1174V19.3351C128.265 21.7888 129.57 23.3672 131.695 23.3672C133.821 23.3672 134.99 21.816 134.99 19.199ZM128.265 16.4731H128.319C128.917 13.8833 130.39 12.5227 132.892 12.5227C136.186 12.5227 137.899 15.058 137.899 19.199C137.899 23.34 136.1 26.0114 132.865 26.0114C130.304 26.0114 128.89 24.6235 128.319 22.0065H128.265V25.6577H125.324V8.95319H128.265V16.4731Z" fill="#F5A805"/>
<path d="M92.794 32.9554V44.072H96.0887C99.9271 44.072 101.563 41.9222 101.563 38.3799C101.563 34.8376 99.8184 32.9599 95.9255 32.9599H92.794V32.9554ZM89.6897 30.3384H96.3334C101.944 30.3384 104.636 33.4724 104.636 38.3754C104.636 43.2783 101.613 46.6845 96.3878 46.6845H89.6897V30.3338V30.3384Z" fill="#F5A805"/>
<path d="M108.8 39.0602H115.499C115.335 37.0736 114.302 36.035 112.285 36.035C110.269 36.035 109.127 36.9875 108.8 39.0602ZM105.832 40.4481C105.832 36.1166 108.393 33.554 112.367 33.554C116.341 33.554 118.222 36.0078 118.222 39.5228C118.222 40.0399 118.222 40.557 118.168 41.2418H108.778C109.05 43.3962 110.301 44.4575 112.399 44.4575C114.497 44.4575 115.204 43.4506 115.585 42.1399L118.145 42.8746C117.493 45.3284 115.748 47.0156 112.376 47.0156C108.456 47.0156 105.841 44.6707 105.841 40.4481" fill="#F5A805"/>
<path d="M123.665 46.6891L118.603 33.8852H121.789L123.533 38.8426C124.132 40.557 124.784 42.3848 125.328 44.0176H125.382C125.954 42.3848 126.579 40.557 127.177 38.8426L128.949 33.8852H132.026L127.018 46.6891H123.669H123.665Z" fill="#F5A805"/>
<path d="M135.289 39.0602H141.987C141.824 37.0736 140.791 36.035 138.774 36.035C136.757 36.035 135.615 36.9875 135.289 39.0602ZM132.321 40.4481C132.321 36.1166 134.881 33.554 138.856 33.554C142.83 33.554 144.711 36.0078 144.711 39.5228C144.711 40.0399 144.711 40.557 144.656 41.2418H135.262C135.534 43.3962 136.785 44.4575 138.883 44.4575C140.981 44.4575 141.688 43.4506 142.069 42.1399L144.629 42.8746C143.977 45.3284 142.232 47.0156 138.86 47.0156C134.94 47.0156 132.325 44.6707 132.325 40.4481" fill="#F5A805"/>
<path d="M149.501 29.9891H146.56V46.6936H149.501V29.9891Z" fill="#F5A805"/>
<path d="M154.264 40.2304C154.264 42.7113 155.542 44.3441 157.858 44.3441C160.173 44.3441 161.506 42.7068 161.506 40.2304C161.506 37.754 160.146 36.2255 157.885 36.2255C155.624 36.2255 154.264 37.7767 154.264 40.2304ZM151.323 40.2576C151.323 36.035 153.938 33.554 157.885 33.554C161.832 33.554 164.42 36.035 164.42 40.2576C164.42 44.4802 161.941 47.0428 157.885 47.0428C153.829 47.0428 151.323 44.453 151.323 40.2576Z" fill="#F5A805"/>
<path d="M175.908 40.2304C175.908 37.6678 174.875 36.1983 172.613 36.1983C170.488 36.1983 169.183 37.6134 169.183 40.1488V40.3665C169.183 42.8202 170.488 44.3986 172.613 44.3986C174.739 44.3986 175.908 42.8474 175.908 40.2304ZM173.783 47.0428C171.222 47.0428 169.808 45.6549 169.237 43.0379H169.183V50.4218H166.242V33.8852H169.183V37.5091H169.237C169.835 34.9193 171.308 33.5586 173.81 33.5586C177.104 33.5586 178.817 36.094 178.817 40.2349C178.817 44.3759 177.023 47.0473 173.783 47.0473" fill="#F5A805"/>
<path d="M183.585 46.689H180.644V33.8852H183.585V37.4002H183.612C184.183 34.6743 185.819 33.5586 187.967 33.5586C190.745 33.5586 191.969 35.1914 192.186 37.5635H192.214C192.73 34.7016 194.203 33.5586 196.542 33.5586C199.673 33.5586 200.815 35.5769 200.815 38.3527V46.689H197.901V39.1147C197.901 37.5635 197.194 36.1983 195.205 36.1983C193.328 36.1983 192.209 37.2868 192.209 39.1147V46.689H189.268V39.1147C189.268 37.5635 188.588 36.1983 186.599 36.1983C184.718 36.1983 183.576 37.2868 183.576 39.1147V46.689H183.585Z" fill="#F5A805"/>
<path d="M205.524 39.0602H212.222C212.059 37.0736 211.025 36.035 209.009 36.035C206.992 36.035 205.85 36.9875 205.524 39.0602ZM202.555 40.4481C202.555 36.1166 205.116 33.554 209.09 33.554C213.065 33.554 214.945 36.0078 214.945 39.5228C214.945 40.0399 214.945 40.557 214.891 41.2418H205.496C205.768 43.3962 207.019 44.4575 209.117 44.4575C211.216 44.4575 211.923 43.4506 212.303 42.1399L214.864 42.8746C214.211 45.3284 212.466 47.0156 209.095 47.0156C205.175 47.0156 202.56 44.6707 202.56 40.4481" fill="#F5A805"/>
<path d="M219.735 46.689H216.794V33.8852H219.735V37.4002H219.763C220.334 34.6743 221.97 33.5586 224.118 33.5586C227.195 33.5586 228.364 35.5769 228.364 38.3527V46.689H225.423V39.1147C225.423 37.5635 224.743 36.1983 222.754 36.1983C220.873 36.1983 219.731 37.2868 219.731 39.1147V46.689H219.735Z" fill="#F5A805"/>
<path d="M231.577 36.3616H229.832V33.8806H231.577V30.4744H234.491V33.8806H238.275V36.3616H234.491V42.3032C234.491 43.555 234.981 44.1809 236.259 44.1809C236.911 44.1809 237.509 44.0176 238.085 43.8815L238.438 46.5802C237.514 46.8795 236.834 47.0428 235.579 47.0428C232.774 47.0428 231.577 45.1923 231.577 42.793V36.3616Z" fill="#F5A805"/>
<path d="M239.281 42.6297L242.032 42.0855C242.44 43.691 243.26 44.7841 245.3 44.7841C246.854 44.7841 247.615 44.1854 247.643 43.1785C247.643 42.2533 246.99 41.7634 244.429 41.3008C240.972 40.6205 239.748 39.4185 239.748 37.3775C239.748 35.0599 241.434 33.5631 244.783 33.5631C248.132 33.5631 249.709 35.0599 250.253 37.5136L247.448 38.1395C247.067 36.4478 246.306 35.7402 244.778 35.7402C243.392 35.7402 242.653 36.3117 242.653 37.2369C242.653 38.1622 243.17 38.7337 245.757 39.1736C249.324 39.8267 250.52 41.1375 250.52 43.0969C250.52 45.4962 248.862 47.0474 245.236 47.0474C241.126 47.0474 239.739 45.1379 239.272 42.6343" fill="#F5A805"/>
</svg>
